<svg width="133" height="133" viewBox="0 0 133 133" fill="none" xmlns="http://www.w3.org/2000/svg">
<path fill-rule="evenodd" clip-rule="evenodd" d="M126.672 74.6659C129.35 72.0709 132.064 69.4413 132.064 66.433C132.064 63.4247 129.35 60.7951 126.672 58.2001C124.458 56.0552 122.268 53.9338 121.656 51.6418C121.011 49.2335 121.869 46.219 122.724 43.2121C123.732 39.6725 124.736 36.1434 123.282 33.6259C121.822 31.0998 118.225 30.1943 114.636 29.2907C111.61 28.5288 108.589 27.7683 106.86 26.0389C105.13 24.3116 104.369 21.2912 103.607 18.2645C102.704 14.6762 101.798 11.079 99.2727 9.61705C96.7944 8.18272 93.2721 9.17697 89.7302 10.1767C86.7077 11.0299 83.671 11.8871 81.2568 11.2425C78.9648 10.6303 76.8434 8.44083 74.6985 6.22697C72.1035 3.54864 69.4739 0.834595 66.4656 0.834595C63.4573 0.834595 60.8277 3.54864 58.2327 6.22697C56.0877 8.44083 53.9664 10.6303 51.6744 11.2425C49.2579 11.8901 46.2167 11.032 43.1908 10.1783C39.651 9.17953 36.132 8.18668 33.6585 9.61705C31.1313 11.077 30.2245 14.6765 29.3199 18.2673C28.558 21.292 27.7976 24.3105 26.0715 26.0389C24.3442 27.7687 21.3238 28.5291 18.2971 29.2912C14.7088 30.1946 11.1116 31.1003 9.64965 33.6259C8.21531 36.1042 9.20957 39.6265 10.2093 43.1684C11.0625 46.1909 11.9196 49.2276 11.2751 51.6418C10.6629 53.9338 8.47343 56.0552 6.25957 58.2001C3.58123 60.7951 0.867188 63.4247 0.867188 66.433C0.867188 69.4413 3.58123 72.0709 6.25957 74.6659C8.47343 76.8108 10.6629 78.9322 11.2751 81.2242C11.9227 83.6407 11.0646 86.6819 10.2109 89.7078C9.21212 93.2476 8.21927 96.7666 9.64965 99.2401C11.1096 101.767 14.7091 102.674 18.2999 103.579C21.3246 104.341 24.3431 105.101 26.0715 106.827C27.8013 108.554 28.5617 111.575 29.3238 114.602C30.2272 118.19 31.1329 121.787 33.6585 123.249C36.1368 124.683 39.6591 123.689 43.201 122.689C46.2235 121.836 49.2602 120.979 51.6744 121.624C53.9664 122.236 56.0877 124.425 58.2327 126.639C60.8277 129.317 63.4573 132.031 66.4656 132.031C69.4739 132.031 72.1035 129.317 74.6985 126.639C76.8434 124.425 78.9648 122.236 81.2568 121.624C83.6733 120.976 86.7145 121.834 89.7404 122.688C93.2802 123.686 96.7992 124.679 99.2727 123.249C101.8 121.789 102.707 118.189 103.611 114.599C104.373 111.574 105.134 108.555 106.86 106.827C108.593 105.092 111.635 104.319 114.676 103.546C118.261 102.635 121.844 101.725 123.282 99.2401C124.716 96.7618 123.722 93.2395 122.722 89.6976C121.869 86.6751 121.012 83.6384 121.656 81.2242C122.268 78.9322 124.458 76.8108 126.672 74.6659ZM112.858 66.3654C112.858 92.0257 92.0563 112.828 66.396 112.828C40.7356 112.828 19.9338 92.0257 19.9338 66.3654C19.9338 40.705 40.7356 19.9032 66.396 19.9032C92.0563 19.9032 112.858 40.705 112.858 66.3654Z" fill="white"/>
<path d="M39.4095 63.5611L59.6103 84.2996L91.2674 47.9265" stroke="white" stroke-width="12.3899" stroke-linejoin="round"/>
</svg>
