<svg width="30" height="30" viewBox="0 0 30 30" fill="none" xmlns="http://www.w3.org/2000/svg">
<path d="M18.7707 28.4154V19.7769C18.7707 19.2225 19.2228 18.7703 19.7772 18.7703L28.4157 18.7703C28.9701 18.7703 29.4223 18.3182 29.4223 17.7638L29.42 11.7768C29.42 11.2224 28.9679 10.7703 28.4135 10.7703L19.775 10.7703C19.2206 10.7703 18.7684 10.3181 18.7684 9.76375L18.7684 1.12525C18.7684 0.57086 18.3163 0.118713 17.7619 0.118713L11.7772 0.118713C11.2228 0.118713 10.7706 0.57086 10.7706 1.12525L10.7706 9.76375C10.7706 10.3181 10.3185 10.7703 9.76411 10.7703L1.1256 10.7703C0.571213 10.7703 0.119066 11.2224 0.119066 11.7768L0.119066 17.7661C0.119066 18.3205 0.571213 18.7726 1.1256 18.7726L9.76411 18.7726C10.3185 18.7726 10.7706 19.2248 10.7706 19.7791L10.7706 28.4177C10.7706 28.972 11.2228 29.4242 11.7772 29.4242L17.7664 29.4242C18.3208 29.4242 18.773 28.972 18.773 28.4177L18.7707 28.4154Z" fill="#42F4B1"/>
</svg>
