<svg width="124" height="91" viewBox="0 0 124 91" fill="none" xmlns="http://www.w3.org/2000/svg">
<path d="M55.5754 79.8675V58.1063C55.5754 56.7097 56.7144 55.5707 58.111 55.5707L79.8722 55.5707C81.2688 55.5707 82.4078 54.4317 82.4078 53.0352L82.4021 37.9534C82.4021 36.5568 81.2631 35.4178 79.8665 35.4178L58.1052 35.4178C56.7087 35.4178 55.5697 34.2788 55.5697 32.8823L55.5697 11.121C55.5697 9.72445 54.4307 8.58545 53.0341 8.58545L37.9581 8.58545C36.5615 8.58545 35.4225 9.72445 35.4225 11.121L35.4225 32.8823C35.4225 34.2788 34.2835 35.4178 32.8869 35.4178L11.1257 35.4178C9.72913 35.4178 8.59012 36.5568 8.59012 37.9534L8.59012 53.0409C8.59012 54.4375 9.72913 55.5765 11.1257 55.5765L32.8869 55.5765C34.2835 55.5764 35.4225 56.7155 35.4225 58.112L35.4225 79.8733C35.4225 81.2698 36.5615 82.4088 37.9581 82.4088L53.0456 82.4088C54.4421 82.4088 55.5811 81.2698 55.5811 79.8733L55.5754 79.8675Z" fill="#42F4B1"/>
<path d="M109.064 81.7048V73.0663C109.064 72.5119 109.516 72.0598 110.07 72.0598L118.709 72.0598C119.263 72.0598 119.715 71.6076 119.715 71.0532L119.713 65.0663C119.713 64.5119 119.261 64.0597 118.706 64.0597L110.068 64.0597C109.514 64.0597 109.061 63.6076 109.061 63.0532L109.061 54.4147C109.061 53.8603 108.609 53.4081 108.055 53.4081L102.07 53.4081C101.516 53.4081 101.064 53.8603 101.064 54.4147L101.064 63.0532C101.064 63.6076 100.611 64.0597 100.057 64.0597L91.4186 64.0597C90.8642 64.0597 90.412 64.5119 90.412 65.0663L90.412 71.0555C90.412 71.6099 90.8642 72.062 91.4186 72.062L100.057 72.062C100.611 72.062 101.064 72.5142 101.064 73.0686L101.064 81.7071C101.064 82.2615 101.516 82.7136 102.07 82.7136L108.059 82.7136C108.614 82.7136 109.066 82.2615 109.066 81.7071L109.064 81.7048Z" fill="#42F4B1"/>
</svg>
