<svg width="23" height="23" viewBox="0 0 23 23" fill="none" xmlns="http://www.w3.org/2000/svg">
<path id="Vector" d="M14.4333 21.6145L14.4333 15.1803C14.4333 14.7674 14.7701 14.4306 15.183 14.4306L21.6171 14.4306C22.0301 14.4306 22.3668 14.0939 22.3668 13.6809L22.3651 9.22171C22.3651 8.80878 22.0284 8.47201 21.6154 8.47201L15.1813 8.47201C14.7684 8.47201 14.4316 8.13524 14.4316 7.72232L14.4316 1.28816C14.4316 0.875235 14.0948 0.538465 13.6819 0.538465L9.22435 0.538465C8.81143 0.538464 8.47466 0.875234 8.47466 1.28816L8.47466 7.72232C8.47466 8.13524 8.13789 8.47201 7.72497 8.47201L1.29081 8.47201C0.877882 8.47201 0.541112 8.80878 0.541112 9.22171L0.541112 13.6826C0.541113 14.0956 0.877882 14.4323 1.29081 14.4323L7.72497 14.4323C8.13789 14.4323 8.47466 14.7691 8.47466 15.182L8.47466 21.6162C8.47466 22.0291 8.81143 22.3659 9.22436 22.3659L13.6853 22.3659C14.0982 22.3659 14.435 22.0291 14.435 21.6162L14.4333 21.6145Z" fill="#42F4B1"/>
</svg>
