<svg width="154" height="110" viewBox="0 0 154 110" fill="none" xmlns="http://www.w3.org/2000/svg">
<g id="Layer_1" clip-path="url(#clip0_547_8613)">
<g id="Group" opacity="0.99">
<path id="Vector" d="M4.40053 109.072C2.92515 109.072 1.50343 108.348 0.671856 107.006C-0.615742 104.941 0.0280569 102.231 2.09358 100.944L48.8763 71.7851C50.9418 70.4975 53.6512 71.1413 54.9388 73.2069C56.2264 75.2724 55.5826 77.9817 53.517 79.2693L6.70747 108.401C5.9832 108.857 5.17845 109.072 4.40053 109.072Z" fill="#42F4B1"/>
</g>
<g id="Group_2" opacity="0.99">
<path id="Vector_2" d="M90.2105 101.479C89.4863 101.479 88.762 101.291 88.0914 100.942L49.0342 79.3751C46.915 78.1948 46.1371 75.5391 47.3174 73.3931C48.4977 71.2739 51.1534 70.496 53.2994 71.6763L92.3565 93.2436C94.4757 94.4239 95.2536 97.0795 94.0733 99.2255C93.2686 100.674 91.7664 101.506 90.2105 101.506V101.479Z" fill="#42F4B1"/>
</g>
<g id="Group_3" opacity="0.99">
<path id="Vector_3" d="M90.2404 101.478C88.765 101.478 87.3433 100.754 86.5117 99.4126C85.2241 97.3471 85.8679 94.6378 87.9334 93.3502L145.124 57.8071C147.19 56.5195 149.899 57.1633 151.187 59.2288C152.474 61.2944 151.831 64.0037 149.765 65.2913L92.5741 100.834C91.8499 101.29 91.0451 101.505 90.2672 101.505L90.2404 101.478Z" fill="#42F4B1"/>
</g>
<g id="Group_4">
<path id="Vector_4" d="M68.2145 22.7474L65.4515 22.667C63.6274 22.6133 62.1252 24.0619 62.0715 25.886L61.9911 29.561C60.1133 29.7756 58.3161 30.1511 56.5993 30.7145C53.7826 31.6533 51.3147 32.9678 49.2224 34.6577C47.13 36.3477 45.4937 38.3596 44.3134 40.6665C43.1331 42.9735 42.543 45.495 42.543 48.1775C42.543 51.8257 43.2941 55.0447 44.7963 57.8077C46.2985 60.5706 48.5786 62.8508 51.6366 64.648C54.1045 66.0966 57.0821 67.2501 60.5962 68.1353L60.3011 80.4748L69.5289 85.5447L69.9044 70.4422C71.192 70.8983 72.3187 71.4079 73.338 71.9981C74.5988 72.6955 75.6182 73.4735 76.4229 74.305C77.2277 75.1366 77.8178 76.0755 78.1934 77.0948C78.5689 78.1142 78.7835 79.214 78.7835 80.3675C78.7835 82.1111 78.1934 83.6401 77.0399 84.9814C76.101 86.0812 74.8939 86.9664 73.4185 87.6639L82.8072 92.8143C84.1217 91.6608 85.2751 90.3195 86.214 88.8442C88.1991 85.7056 89.1916 81.977 89.1916 77.6582C89.1916 75.3512 88.6819 73.2052 87.6894 71.1933C86.6969 69.2083 85.2215 67.411 83.3169 65.8015C81.3855 64.192 79.0518 62.7971 76.2888 61.6168C74.5452 60.8657 72.6674 60.2219 70.6287 59.6318L71.1384 39.5667C72.2919 39.9691 73.3917 40.4788 74.4379 41.1494C76.2083 42.2492 77.8178 43.6977 79.2663 45.4682C80.4735 46.9436 82.7268 46.9972 84.068 45.656L86.6969 43.0539C87.8772 41.9005 88.0113 40.0495 87.0188 38.7351C84.9801 36.0526 82.4585 33.9066 79.4273 32.324C76.9862 31.0632 74.3037 30.178 71.3798 29.7219L71.4603 26.1006C71.5139 24.2765 70.0654 22.7743 68.2413 22.7206L68.2145 22.7474ZM61.2936 57.2444C60.9717 57.1371 60.6498 57.0298 60.3547 56.9225C58.5575 56.2518 57.1358 55.4739 56.0628 54.6155C54.9898 53.7571 54.2118 52.7646 53.7022 51.6379C53.1925 50.5113 52.9242 49.2773 52.9242 47.9361C52.9242 46.0852 53.4607 44.4488 54.5069 43.0808C55.5531 41.7127 57.0285 40.6129 58.8794 39.8618C59.7646 39.5131 60.7035 39.2448 61.7228 39.0302L61.2668 57.2712L61.2936 57.2444Z" fill="#42F4B1"/>
<path id="Vector_5" d="M18.48 96.007C12.6858 87.1012 9.30582 76.4785 9.30582 65.051C9.33265 33.6122 34.8968 8.04798 66.3357 8.04798C97.7746 8.04798 123.339 33.6122 123.339 65.051C123.339 69.1016 122.91 73.0717 122.105 76.8808L131.064 71.4354C131.279 69.343 131.386 67.197 131.386 65.051C131.386 29.1861 102.201 0.000488281 66.3357 0.000488281C30.4707 0.000488281 1.28516 29.1861 1.28516 65.051C1.28516 78.0343 5.12113 90.1056 11.6932 100.272L18.5068 95.9802L18.48 96.007Z" fill="#42F4B1"/>
</g>
<g id="Group_5" opacity="0.99">
<path id="Vector_6" d="M146.842 76.3451C146.52 76.3451 146.198 76.3183 145.876 76.2379C143.73 75.7014 142.389 73.5285 142.926 71.3825L145.018 62.879L136.514 60.7867C134.368 60.2502 133.027 58.0774 133.564 55.9314C134.1 53.7854 136.273 52.4441 138.419 52.9806L150.812 56.0118C151.858 56.2532 152.743 56.9239 153.307 57.8359C153.87 58.748 154.031 59.8478 153.763 60.8671L150.732 73.2603C150.276 75.0844 148.639 76.3183 146.815 76.3183L146.842 76.3451Z" fill="#42F4B1"/>
</g>
</g>
<defs>
<clipPath id="clip0_547_8613">
<rect width="153.895" height="109.07" fill="white"/>
</clipPath>
</defs>
</svg>
