<svg width="148" height="109" viewBox="0 0 148 109" fill="none" xmlns="http://www.w3.org/2000/svg">
<g id="Layer_1" clip-path="url(#clip0_547_8606)">
<path id="Vector" d="M73.5809 108.239C47.7217 108.239 26.6641 87.2083 26.6641 61.3222C26.6641 35.4361 47.7217 14.4321 73.5809 14.4321C99.4402 14.4321 120.498 35.4629 120.498 61.349C120.498 87.2351 99.467 108.266 73.5809 108.266V108.239ZM73.5809 22.4796C52.1478 22.4796 34.7116 39.9159 34.7116 61.349C34.7116 82.7822 52.1478 100.218 73.5809 100.218C95.0141 100.218 112.45 82.7822 112.45 61.349C112.45 39.9159 95.0141 22.4796 73.5809 22.4796Z" fill="#42F4B1"/>
<path id="Vector_2" d="M19.0708 83.1579C17.3809 83.1579 15.7982 82.0849 15.2349 80.3949C13.223 74.2788 12.2305 67.8677 12.2305 61.3492C12.2305 27.5229 39.7529 0.000488281 73.5792 0.000488281C107.405 0.000488281 134.928 27.5229 134.928 61.3492C134.928 67.5726 133.989 73.7155 132.165 79.5902C131.494 81.7093 129.268 82.8896 127.122 82.2458C125.003 81.5752 123.822 79.3219 124.466 77.2028C126.049 72.0792 126.854 66.7678 126.854 61.3492C126.854 31.949 102.953 8.04798 73.5523 8.04798C44.1522 8.04798 20.278 31.949 20.278 61.3492C20.278 67.0093 21.1632 72.562 22.88 77.8734C23.5774 79.9925 22.424 82.2458 20.3048 82.9433C19.9024 83.0774 19.4732 83.1311 19.044 83.1311L19.0708 83.1579Z" fill="#42F4B1"/>
<path id="Vector_3" d="M135.544 83.1572H128.087C126.799 83.1572 125.592 82.5402 124.841 81.494C124.09 80.4478 123.875 79.1066 124.278 77.8726C126.021 72.5345 126.907 66.9549 126.907 61.3485C126.907 56.0639 126.129 50.8331 124.6 45.79C124.224 44.5829 124.466 43.2416 125.217 42.2223C125.968 41.2029 127.175 40.5859 128.463 40.5859H135.598C142.304 40.5859 147.75 46.0314 147.75 52.7376V71.0054C147.75 77.7117 142.304 83.1572 135.598 83.1572H135.544ZM133.371 75.1097H135.544C137.798 75.1097 139.649 73.2587 139.649 71.0054V52.7376C139.649 50.4844 137.798 48.6334 135.544 48.6334H133.613C134.498 52.7913 134.927 57.0565 134.927 61.3485C134.927 65.9892 134.391 70.6031 133.371 75.1097Z" fill="#42F4B1"/>
<path id="Vector_4" d="M19.0994 83.1572H12.1517C5.44547 83.1572 0 77.7117 0 71.0054V52.7376C0 46.0314 5.44547 40.5859 12.1517 40.5859H18.7507C20.0382 40.5859 21.2185 41.2029 21.9965 42.2223C22.7476 43.2416 22.989 44.5829 22.6134 45.79C21.0844 50.8331 20.3065 56.0639 20.3065 61.3485C20.3065 66.9817 21.1917 72.5345 22.9353 77.8726C23.3377 79.1066 23.1231 80.4478 22.372 81.494C21.6209 82.5402 20.4138 83.1572 19.1262 83.1572H19.0994ZM12.1517 48.6334C9.89841 48.6334 8.04749 50.4844 8.04749 52.7376V71.0054C8.04749 73.2587 9.89841 75.1097 12.1517 75.1097H13.8149C12.7687 70.6031 12.259 65.9892 12.259 61.3485C12.259 57.0565 12.715 52.7913 13.5734 48.6334H12.1517Z" fill="#42F4B1"/>
<path id="Vector_5" d="M126.639 83.1578H95.012C92.7856 83.1578 90.9883 81.3606 90.9883 79.1341C90.9883 76.9076 92.7856 75.1104 95.012 75.1104H126.639C128.865 75.1104 130.662 76.9076 130.662 79.1341C130.662 81.3606 128.865 83.1578 126.639 83.1578Z" fill="#42F4B1"/>
<path id="Vector_6" d="M85.7847 90.4813H78.998C72.8014 90.4813 67.7852 85.4382 67.7852 79.2685C67.7852 73.0988 72.8283 68.0557 78.998 68.0557H85.7847C91.9813 68.0557 96.9975 73.0988 96.9975 79.2685C96.9975 85.4382 91.9545 90.4813 85.7847 90.4813ZM78.9712 76.0763C77.2275 76.0763 75.8058 77.4981 75.8058 79.2417C75.8058 80.9853 77.2275 82.407 78.9712 82.407H85.7579C87.5015 82.407 88.9232 80.9853 88.9232 79.2417C88.9232 77.4981 87.5015 76.0763 85.7579 76.0763H78.9712Z" fill="#42F4B1"/>
</g>
<defs>
<clipPath id="clip0_547_8606">
<rect width="147.698" height="108.239" fill="white"/>
</clipPath>
</defs>
</svg>
