<svg width="110" height="132" viewBox="0 0 110 132" fill="none" xmlns="http://www.w3.org/2000/svg">
<g id="Layer_1" clip-path="url(#clip0_547_8581)">
<g id="Group" opacity="0.99">
<path id="Vector" d="M54.6414 131.173C24.7047 131.173 0.347656 106.816 0.347656 76.8797C0.347656 46.943 24.7047 22.5859 54.6414 22.5859C84.578 22.5859 108.935 46.943 108.935 76.8797C108.935 106.816 84.578 131.173 54.6414 131.173ZM54.6414 30.6334C29.1308 30.6334 8.39515 51.3691 8.39515 76.8797C8.39515 102.39 29.1308 123.126 54.6414 123.126C80.1519 123.126 100.888 102.39 100.888 76.8797C100.888 51.3691 80.1519 30.6334 54.6414 30.6334Z" fill="#42F4B1"/>
</g>
<g id="Group_2" opacity="0.99">
<path id="Vector_2" d="M54.643 131.174C24.7064 131.174 0.349312 106.817 0.349312 76.88C0.349312 66.5792 3.21958 56.654 8.66505 47.9895L1.85151 41.176C-0.643212 38.6813 -0.643212 34.6307 1.85151 32.1628L10.2209 23.7934C12.7156 21.2987 16.7662 21.2987 19.2341 23.7934L26.1013 30.6606C31.7882 27.1465 38.092 24.7055 44.6373 23.4983V12.5806H64.5683V23.4983C71.1136 24.7323 77.4443 27.1465 83.1043 30.6606L89.9715 23.7934C92.4662 21.2987 96.49 21.2987 98.9847 23.7934L107.354 32.1628C109.849 34.6575 109.849 38.7081 107.354 41.176L100.541 47.9895C105.986 56.6272 108.856 66.5524 108.856 76.88C108.856 106.817 84.4992 131.174 54.5626 131.174H54.643ZM8.74553 36.6694L19.1268 47.0507L17.1149 49.8404C11.4012 57.7538 8.3968 67.0889 8.3968 76.8532C8.3968 102.364 29.1325 123.099 54.643 123.099C80.1536 123.099 100.889 102.364 100.889 76.8532C100.889 67.0889 97.8581 57.7538 92.1712 49.8404L90.1593 47.0507L100.541 36.6694L94.5318 30.6606L84.1237 41.0955L81.3607 39.1373C75.0837 34.6843 67.7336 31.8677 60.1153 30.9825L56.5744 30.5533V20.6281H52.7385V30.5533L49.1976 30.9825C41.5793 31.8677 34.2292 34.7112 27.9522 39.1373L25.1892 41.0955L14.7543 30.6606L8.74553 36.6694Z" fill="#42F4B1"/>
</g>
<g id="Group_3" opacity="0.99">
<path id="Vector_3" d="M69.6101 20.5752H39.6734C36.1593 20.5752 33.2891 17.7049 33.2891 14.1909V6.35798C33.2891 2.8439 36.1593 -0.0263672 39.6734 -0.0263672H69.6101C73.1241 -0.0263672 75.9944 2.8439 75.9944 6.35798V14.1909C75.9944 17.7049 73.1241 20.5752 69.6101 20.5752ZM41.3366 12.5277H67.9201V8.04795H41.3366V12.5277Z" fill="#42F4B1"/>
</g>
<path id="Vector_4" d="M53.621 89.7831C46.4856 89.7831 40.6914 83.9889 40.6914 76.8535C40.6914 69.718 46.4856 63.9238 53.621 63.9238C54.2112 63.9238 54.8013 63.9775 55.3915 64.058C55.5256 64.058 55.6597 64.1116 55.7939 64.1384L86.2402 71.5421C87.9838 71.9713 89.2178 73.5003 89.2983 75.2708C89.3787 77.0681 88.2521 78.6776 86.5621 79.2677L58.9324 88.6028C57.9935 89.0052 56.5718 89.3539 55.767 89.5685C55.6329 89.5953 55.4988 89.6221 55.3647 89.649C54.7745 89.7294 54.1844 89.7831 53.5942 89.7831H53.621ZM53.621 71.9981C50.9385 71.9981 48.7389 74.171 48.7389 76.8803C48.7389 79.7237 51.3409 82.0843 54.1039 81.7088C54.8013 81.5478 55.5793 81.3064 55.7939 81.2259C55.8743 81.1991 56.1158 81.0918 56.1962 81.065L70.8427 76.1024L54.1039 72.025C53.9429 72.025 53.782 71.9981 53.621 71.9981Z" fill="#42F4B1"/>
</g>
<defs>
<clipPath id="clip0_547_8581">
<rect width="109.285" height="131.174" fill="white"/>
</clipPath>
</defs>
</svg>
