<svg width="147" height="138" viewBox="0 0 147 138" fill="none" xmlns="http://www.w3.org/2000/svg">
<g id="Layer_1" clip-path="url(#clip0_547_8589)">
<g id="Group" opacity="0.99">
<path id="Vector" d="M39.9961 41.6601C37.7696 41.6601 35.9455 39.8628 35.9187 37.6363L35.8382 28.7573L26.9592 28.8377H26.9055C24.679 28.8377 22.8549 27.0405 22.8281 24.814C22.8281 22.5607 24.5986 20.7098 26.8519 20.683L39.8083 20.5488C40.8545 20.5488 41.9275 20.9512 42.7054 21.7023C43.4834 22.4534 43.9125 23.4996 43.9394 24.5726L44.0735 37.529C44.0735 39.7823 42.2762 41.6333 40.0498 41.6601H39.9961Z" fill="#42F4B1"/>
</g>
<g id="Group_2" opacity="0.99">
<path id="Vector_2" d="M128.491 66.7134C127.821 66.7134 127.15 66.5524 126.533 66.2037L115.159 60.0071C113.174 58.9341 112.45 56.4394 113.523 54.4812C114.596 52.4961 117.091 51.7719 119.049 52.8449L126.828 57.0832L131.067 49.304C132.14 47.3189 134.634 46.5946 136.593 47.6676C138.578 48.7406 139.302 51.2354 138.229 53.1936L132.032 64.5674C131.281 65.9354 129.886 66.6865 128.438 66.6865L128.491 66.7134Z" fill="#42F4B1"/>
</g>
<g id="Group_3" opacity="0.99">
<path id="Vector_3" d="M49.0343 137.451C47.398 137.451 45.869 136.459 45.2252 134.876L40.4772 122.832C40.0748 121.812 40.1016 120.713 40.5308 119.72C40.96 118.727 41.7647 117.95 42.7841 117.547L54.8285 112.799C56.9209 111.968 59.2815 113.014 60.113 115.106C60.9446 117.198 59.8984 119.559 57.8061 120.391L49.544 123.636L52.7898 131.899C53.6214 133.991 52.5752 136.378 50.4829 137.183C50 137.371 49.4903 137.478 48.9807 137.478L49.0343 137.451Z" fill="#42F4B1"/>
</g>
<path id="Vector_4" d="M17.5419 61.8843C17.1932 61.8843 16.8445 61.8306 16.4957 61.7502C14.3229 61.1868 13.0085 58.9604 13.5718 56.7607C16.9249 44.0189 24.5164 32.4841 34.9513 24.3025C36.7218 22.9076 39.297 23.2295 40.665 25C42.0599 26.7704 41.738 29.3456 39.9676 30.7137C30.9276 37.7955 24.3555 47.7744 21.4584 58.7994C20.9755 60.6235 19.3124 61.8575 17.5151 61.8575L17.5419 61.8843Z" fill="#42F4B1"/>
<path id="Vector_5" d="M72.3999 132.999C62.2869 132.999 52.2544 130.45 43.429 125.649C41.4439 124.576 40.7196 122.108 41.7926 120.123C42.8656 118.138 45.3335 117.413 47.3186 118.486C60.3823 125.568 76.5041 126.749 90.3995 121.679C92.5187 120.901 94.8524 122.001 95.6303 124.12C96.4083 126.239 95.3084 128.573 93.1893 129.351C86.5367 131.765 79.5354 132.999 72.3999 132.999Z" fill="#42F4B1"/>
<path id="Vector_6" d="M127.954 64.8628C126.05 64.8628 124.36 63.5216 123.957 61.5902C121.221 48.1777 113.415 36.482 102.041 28.7028C100.19 27.442 99.7074 24.8936 100.968 23.0427C102.229 21.1918 104.777 20.7089 106.628 21.9697C119.773 30.9561 128.759 44.4222 131.924 59.9538C132.38 62.1535 130.959 64.3263 128.759 64.7555C128.491 64.8092 128.196 64.836 127.927 64.836L127.954 64.8628Z" fill="#42F4B1"/>
<path id="Vector_7" d="M91.796 46.9437H53.0071C50.7538 46.9437 48.9297 45.1196 48.9297 42.8663V4.07739C48.9297 1.8241 50.7538 0 53.0071 0H91.796C94.0493 0 95.8734 1.8241 95.8734 4.07739V42.8663C95.8734 45.1196 94.0493 46.9437 91.796 46.9437ZM57.0845 38.7889H87.7186V8.15479H57.0845V38.7889Z" fill="#42F4B1"/>
<path id="Vector_8" d="M36.2663 115.133H14.8063C13.3577 115.133 11.9897 114.355 11.2654 113.094L0.535393 94.5046C-0.188881 93.2438 -0.188881 91.688 0.535393 90.4272L11.2654 71.8375C11.9897 70.5768 13.3309 69.7988 14.8063 69.7988H36.2663C37.7148 69.7988 39.0829 70.5768 39.8071 71.8375L50.5371 90.4272C51.2614 91.688 51.2614 93.2438 50.5371 94.5046L39.8071 113.094C39.0829 114.355 37.7416 115.133 36.2663 115.133ZM17.1669 106.978H33.9057L42.275 92.4659L33.9057 77.9536H17.1669L8.79748 92.4659L17.1669 106.978Z" fill="#42F4B1"/>
<path id="Vector_9" d="M142.869 116.367H95.1739C93.7254 116.367 92.3573 115.589 91.633 114.328C90.9088 113.067 90.9088 111.511 91.633 110.251L115.48 68.9401C116.205 67.6793 117.546 66.9014 119.021 66.9014C120.47 66.9014 121.838 67.6793 122.562 68.9401L146.41 110.251C147.134 111.511 147.134 113.067 146.41 114.328C145.685 115.589 144.344 116.367 142.869 116.367ZM102.229 108.212H135.814L119.021 79.1336L102.229 108.212Z" fill="#42F4B1"/>
</g>
<defs>
<clipPath id="clip0_547_8589">
<rect width="146.947" height="137.451" fill="white"/>
</clipPath>
</defs>
</svg>
