<svg width="38" height="43" viewBox="0 0 38 43" fill="none" xmlns="http://www.w3.org/2000/svg">
<path d="M2.23147 10.9625L2.23156 10.9625L18.2681 1.69615C18.2682 1.69613 18.2682 1.69612 18.2682 1.6961C18.7208 1.43463 19.2792 1.43463 19.7318 1.6961C19.7318 1.69612 19.7318 1.69613 19.7319 1.69615L35.7684 10.9625L35.7685 10.9625C36.22 11.2234 36.5 11.7079 36.5 12.2336L36.5 30.7664C36.5 31.2921 36.22 31.7766 35.7685 32.0375L35.7684 32.0375L19.7319 41.3039C19.2792 41.5654 18.7208 41.5654 18.2681 41.3039L2.23156 32.0375L2.23147 32.0375C1.78005 31.7766 1.5 31.2921 1.5 30.7664L1.5 12.2336C1.5 11.7079 1.78004 11.2234 2.23147 10.9625Z" fill="#1B153E" stroke="#42F4B1" stroke-width="3"/>
<path fill-rule="evenodd" clip-rule="evenodd" d="M30.6349 23.0986C31.1749 22.5753 31.7222 22.0451 31.7222 21.4385C31.7222 20.8319 31.1749 20.3017 30.6349 19.7784C30.1885 19.3459 29.747 18.9181 29.6235 18.456C29.4934 17.9704 29.6664 17.3625 29.8389 16.7562C30.042 16.0425 30.2445 15.3309 29.9513 14.8232C29.657 14.3139 28.9317 14.1313 28.208 13.9491C27.5978 13.7955 26.9887 13.6421 26.64 13.2934C26.2912 12.9451 26.1378 12.3361 25.9842 11.7258C25.802 11.0022 25.6194 10.2769 25.1101 9.98208C24.6104 9.69286 23.9002 9.89334 23.186 10.0949C22.5765 10.267 21.9642 10.4398 21.4774 10.3098C21.0152 10.1864 20.5875 9.74491 20.155 9.2985C19.6317 8.75844 19.1015 8.21118 18.4949 8.21118C17.8883 8.21118 17.358 8.75844 16.8348 9.2985C16.4023 9.74491 15.9745 10.1864 15.5124 10.3098C15.0251 10.4404 14.4119 10.2674 13.8017 10.0952C13.088 9.89386 12.3784 9.69366 11.8796 9.98208C11.37 10.2765 11.1872 11.0023 11.0048 11.7263C10.8512 12.3362 10.6978 12.9449 10.3498 13.2934C10.0015 13.6422 9.39246 13.7955 8.78215 13.9492C8.0586 14.1314 7.33326 14.314 7.03848 14.8232C6.74926 15.323 6.94974 16.0332 7.15133 16.7474C7.32336 17.3569 7.4962 17.9692 7.36623 18.456C7.24279 18.9181 6.8013 19.3459 6.3549 19.7784C5.81484 20.3017 5.26758 20.8319 5.26758 21.4385C5.26758 22.0451 5.81484 22.5753 6.3549 23.0986C6.8013 23.5311 7.24279 23.9588 7.36623 24.421C7.49681 24.9082 7.32379 25.5215 7.15164 26.1316C6.95026 26.8454 6.75006 27.555 7.03848 28.0537C7.33287 28.5633 8.05868 28.7462 8.78273 28.9286C9.39262 29.0822 10.0013 29.2355 10.3498 29.5836C10.6986 29.9319 10.8519 30.5409 11.0056 31.1512C11.1877 31.8748 11.3704 32.6001 11.8796 32.8949C12.3794 33.1841 13.0896 32.9836 13.8038 32.782C14.4132 32.61 15.0256 32.4372 15.5124 32.5671C15.9745 32.6906 16.4023 33.1321 16.8348 33.5785C17.358 34.1185 17.8883 34.6658 18.4949 34.6658C19.1015 34.6658 19.6317 34.1185 20.155 33.5785C20.5875 33.1321 21.0152 32.6906 21.4774 32.5671C21.9646 32.4366 22.5779 32.6096 23.188 32.7817C23.9018 32.9831 24.6114 33.1833 25.1101 32.8949C25.6197 32.6005 25.8026 31.8747 25.985 31.1506C26.1386 30.5407 26.2919 29.9321 26.64 29.5836C26.9894 29.2336 27.6028 29.0778 28.2161 28.9219C28.9388 28.7383 29.6613 28.5547 29.9513 28.0537C30.2405 27.554 30.04 26.8438 29.8384 26.1296C29.6664 25.5201 29.4936 24.9078 29.6235 24.421C29.747 23.9588 30.1885 23.5311 30.6349 23.0986ZM27.8503 21.4246C27.8503 26.5988 23.6558 30.7933 18.4817 30.7933C13.3075 30.7933 9.113 26.5988 9.113 21.4246C9.113 16.2505 13.3075 12.056 18.4817 12.056C23.6558 12.056 27.8503 16.2505 27.8503 21.4246Z" fill="#42F4B1"/>
<path d="M13.0401 20.8592L17.1134 25.041L23.4967 17.7067" stroke="#42F4B1" stroke-width="2.49831" stroke-linejoin="round"/>
</svg>
