<svg width="38" height="43" viewBox="0 0 38 43" fill="none" xmlns="http://www.w3.org/2000/svg">
<path d="M2.23147 10.9625L2.23156 10.9625L18.2681 1.69615C18.2682 1.69613 18.2682 1.69612 18.2682 1.6961C18.7208 1.43463 19.2792 1.43463 19.7318 1.6961C19.7318 1.69612 19.7318 1.69613 19.7319 1.69615L35.7684 10.9625L35.7685 10.9625C36.22 11.2234 36.5 11.7079 36.5 12.2336L36.5 30.7664C36.5 31.2921 36.22 31.7766 35.7685 32.0374L35.7684 32.0375L19.7319 41.3038C19.2792 41.5654 18.7208 41.5654 18.2681 41.3038L2.23156 32.0375L2.23147 32.0374C1.78004 31.7766 1.5 31.2921 1.5 30.7664L1.5 12.2336C1.5 11.7079 1.78004 11.2234 2.23147 10.9625Z" fill="#1B153E" stroke="white" stroke-width="3"/>
<path fill-rule="evenodd" clip-rule="evenodd" d="M7.07482 22.7717C6.51325 21.7381 6.19426 20.5535 6.19426 19.2945C6.19426 15.2658 9.4601 12 13.4887 12C17.5174 12 20.7832 15.2658 20.7832 19.2945C20.7832 23.3231 17.5174 26.5889 13.4887 26.5889C12.2297 26.5889 11.0453 26.27 10.0117 25.7085L5.99988 26.7834L7.07482 22.7717Z" fill="#1B153E"/>
<path d="M7.07482 22.7717L8.04427 22.245L8.25448 22.632L8.14051 23.0573L7.07482 22.7717ZM10.0117 25.7085L9.72611 24.6428L10.1514 24.5288L10.5383 24.739L10.0117 25.7085ZM5.99988 26.7834L6.28543 27.8491L4.4396 28.3437L4.93419 26.4979L5.99988 26.7834ZM7.29754 19.2945C7.29754 20.365 7.56833 21.369 8.04427 22.245L6.10536 23.2984C5.45816 22.1072 5.09097 20.7421 5.09097 19.2945H7.29754ZM13.4887 13.1033C10.0694 13.1033 7.29754 15.8752 7.29754 19.2945H5.09097C5.09097 14.6565 8.85078 10.8967 13.4887 10.8967V13.1033ZM19.6799 19.2945C19.6799 15.8752 16.908 13.1033 13.4887 13.1033V10.8967C18.1267 10.8967 21.8865 14.6565 21.8865 19.2945H19.6799ZM13.4887 25.4857C16.908 25.4857 19.6799 22.7138 19.6799 19.2945H21.8865C21.8865 23.9324 18.1267 27.6922 13.4887 27.6922V25.4857ZM10.5383 24.739C11.4143 25.2149 12.4183 25.4857 13.4887 25.4857V27.6922C12.0412 27.6922 10.6762 27.3251 9.48499 26.678L10.5383 24.739ZM5.71433 25.7178L9.72611 24.6428L10.2972 26.7742L6.28543 27.8491L5.71433 25.7178ZM8.14051 23.0573L7.06558 27.069L4.93419 26.4979L6.00912 22.4862L8.14051 23.0573Z" fill="white"/>
<path fill-rule="evenodd" clip-rule="evenodd" d="M29.1157 26.9072C29.6772 25.8736 29.9962 24.6892 29.9962 23.4302C29.9962 19.4016 26.7303 16.1357 22.7017 16.1357C18.6731 16.1357 15.4072 19.4016 15.4072 23.4302C15.4072 27.4588 18.6731 30.7247 22.7017 30.7247C23.9607 30.7247 25.1452 30.4057 26.1788 29.8442L30.1907 30.9192L29.1157 26.9072Z" fill="#1B153E"/>
<path d="M29.1157 26.9072L28.1463 26.3806L27.9361 26.7675L28.0501 27.1928L29.1157 26.9072ZM26.1788 29.8442L26.4644 28.7785L26.0391 28.6645L25.6522 28.8747L26.1788 29.8442ZM30.1907 30.9192L29.9052 31.9849L31.751 32.4795L31.2564 30.6336L30.1907 30.9192ZM28.8929 23.4302C28.8929 24.5007 28.6221 25.5046 28.1463 26.3806L30.0852 27.4339C30.7323 26.2427 31.0995 24.8777 31.0995 23.4302H28.8929ZM22.7017 17.239C26.121 17.239 28.8929 20.0109 28.8929 23.4302H31.0995C31.0995 18.7923 27.3397 15.0325 22.7017 15.0325V17.239ZM16.5105 23.4302C16.5105 20.0109 19.2824 17.239 22.7017 17.239V15.0325C18.0637 15.0325 14.3039 18.7923 14.3039 23.4302H16.5105ZM22.7017 29.6214C19.2824 29.6214 16.5105 26.8495 16.5105 23.4302H14.3039C14.3039 28.0682 18.0637 31.828 22.7017 31.828V29.6214ZM25.6522 28.8747C24.7762 29.3506 23.7722 29.6214 22.7017 29.6214V31.828C24.1492 31.828 25.5143 31.4608 26.7055 30.8137L25.6522 28.8747ZM30.4763 29.8535L26.4644 28.7785L25.8933 30.9099L29.9052 31.9849L30.4763 29.8535ZM28.0501 27.1928L29.1251 31.2047L31.2564 30.6336L30.1814 26.6217L28.0501 27.1928Z" fill="white"/>
</svg>
