<svg width="38" height="43" viewBox="0 0 38 43" fill="none" xmlns="http://www.w3.org/2000/svg">
<path d="M2.23147 10.9625L2.23156 10.9625L18.2681 1.69615C18.2682 1.69613 18.2682 1.69612 18.2682 1.6961C18.7208 1.43463 19.2792 1.43463 19.7318 1.6961C19.7318 1.69612 19.7318 1.69613 19.7319 1.69615L35.7684 10.9625L35.7685 10.9625C36.22 11.2234 36.5 11.7079 36.5 12.2336L36.5 30.7664C36.5 31.2921 36.22 31.7766 35.7685 32.0374L35.7684 32.0375L19.7319 41.3038C19.2792 41.5654 18.7208 41.5654 18.2681 41.3038L2.23156 32.0375L2.23147 32.0374C1.78004 31.7766 1.5 31.2921 1.5 30.7664L1.5 12.2336C1.5 11.7079 1.78004 11.2234 2.23147 10.9625Z" fill="#1B153E" stroke="white" stroke-width="3"/>
<path d="M16.6125 14.8911C15.6212 15.2814 14.7214 15.8725 13.9696 16.6273C13.2177 17.3822 12.6302 18.2844 12.2439 19.2772C11.8575 20.2701 11.6807 21.3321 11.7247 22.3966C11.7686 23.4611 12.0322 24.5049 12.499 25.4626C12.9658 26.4203 13.6257 27.271 14.4371 27.9614C15.2485 28.6517 16.194 29.1667 17.2141 29.4741C18.2342 29.7814 19.3068 29.8744 20.3646 29.7472C21.4223 29.6199 22.4423 29.2753 23.3604 28.7349" stroke="white" stroke-width="2.00628" stroke-linecap="round"/>
<path d="M25.7067 17.5596C25.1133 16.7369 24.3637 16.0391 23.5007 15.5061C22.6376 14.9731 21.6781 14.6154 20.6767 14.4532" stroke="white" stroke-width="2.00628" stroke-linecap="round"/>
<path d="M26.229 25.7713C26.9431 24.4902 27.2776 23.0322 27.1936 21.5679" stroke="white" stroke-width="2.00628" stroke-linecap="round"/>
<path d="M18.5679 34.2216C21.5469 34.445 24.5049 33.5718 26.885 31.7664C29.2651 29.9609 30.9032 27.3478 31.4909 24.4187C32.0787 21.4897 31.5755 18.4469 30.0761 15.863C28.5768 13.2791 26.1846 11.3324 23.35 10.3892C20.5154 9.44612 17.4338 9.57164 14.6853 10.7422C11.9367 11.9128 9.71087 14.0476 8.42663 16.7449C7.1424 19.4422 6.88838 22.5158 7.7124 25.3874C8.53641 28.2589 10.3816 30.7302 12.9007 32.336" stroke="white" stroke-width="2.02421" stroke-linecap="round"/>
</svg>
