<svg width="340" height="340" preserveAspectRatio="none" viewBox="0 0 340 340" fill="none" xmlns="http://www.w3.org/2000/svg">
<g clip-path="url(#clip0_23_4)">
<path d="M13.7548 77.1751L157.232 3.90986C165.124 -0.119693 174.855 -0.119693 182.747 3.90986L326.224 77.1751C334.116 81.2044 338.973 88.6635 338.973 96.7251V243.256C338.973 251.318 334.116 258.777 326.224 262.807L182.747 336.072C174.855 340.101 165.124 340.101 157.232 336.072L13.7548 262.807C5.86302 258.777 1.00586 251.318 1.00586 243.256V96.7251C1.00586 88.6635 5.86302 81.2044 13.7548 77.1751Z" fill="#1B153E"/>
<path d="M326.224 77.1751L182.747 3.90986C174.855 -0.119693 165.124 -0.119693 157.232 3.90986L13.7548 77.1751C5.86302 81.2044 1.00586 88.6635 1.00586 96.7251V243.256C1.00586 251.318 5.86302 258.777 13.7548 262.807L157.232 336.072C165.124 340.101 174.855 340.101 182.747 336.072L326.224 262.807C334.116 258.777 338.973 251.318 338.973 243.256V96.7251C338.973 88.6635 334.116 81.2044 326.224 77.1751ZM326.224 77.1751L326.728 76.4068" stroke="#42F4B1" stroke-width="2"/>
</g>
<defs>
<clipPath id="clip0_23_4">
<rect width="340" height="340" fill="white"/>
</clipPath>
</defs>
</svg>
