<svg width="38" height="43" viewBox="0 0 38 43" fill="none" xmlns="http://www.w3.org/2000/svg">
<path d="M2.23147 10.9625L2.23156 10.9625L18.2681 1.69615C18.2682 1.69613 18.2682 1.69612 18.2682 1.6961C18.7208 1.43463 19.2792 1.43463 19.7318 1.6961C19.7318 1.69612 19.7318 1.69613 19.7319 1.69615L35.7684 10.9625L35.7685 10.9625C36.22 11.2234 36.5 11.7079 36.5 12.2336L36.5 30.7664C36.5 31.2921 36.22 31.7766 35.7685 32.0374L35.7684 32.0375L19.7319 41.3038C19.2792 41.5654 18.7208 41.5654 18.2681 41.3038L2.23156 32.0375L2.23147 32.0374C1.78004 31.7766 1.5 31.2921 1.5 30.7664L1.5 12.2336C1.5 11.7079 1.78004 11.2234 2.23147 10.9625Z" fill="#1B153E" stroke="#42F4B1" stroke-width="3"/>
<path d="M29.4944 29.7038H10V12" stroke="#42F4B1" stroke-width="2.22" stroke-miterlimit="10"/>
<path d="M10.1782 23.592L16.8382 19.3663L19.488 22.1593L27.3942 16.6274" stroke="#42F4B1" stroke-width="2.22" stroke-miterlimit="10" stroke-linecap="round"/>
<path d="M23.8511 16.014L27.43 16.6275L26.818 20.205" stroke="#42F4B1" stroke-width="2.22" stroke-miterlimit="10" stroke-linecap="round"/>
</svg>
