<svg width="124" height="91" viewBox="0 0 124 91" fill="none" xmlns="http://www.w3.org/2000/svg">
<path d="M55.5765 79.8675V58.1063C55.5765 56.7097 56.7155 55.5707 58.1121 55.5707L79.8733 55.5707C81.2699 55.5707 82.4089 54.4317 82.4089 53.0352L82.4032 37.9534C82.4032 36.5568 81.2642 35.4178 79.8676 35.4178L58.1063 35.4178C56.7098 35.4178 55.5708 34.2788 55.5708 32.8823L55.5708 11.121C55.5708 9.72445 54.4318 8.58545 53.0352 8.58545L37.9592 8.58545C36.5626 8.58545 35.4236 9.72445 35.4236 11.121L35.4236 32.8823C35.4236 34.2788 34.2846 35.4178 32.888 35.4178L11.1268 35.4178C9.73023 35.4178 8.59122 36.5568 8.59122 37.9534L8.59122 53.0409C8.59122 54.4375 9.73022 55.5765 11.1268 55.5765L32.888 55.5765C34.2846 55.5764 35.4236 56.7155 35.4236 58.112L35.4236 79.8733C35.4236 81.2698 36.5626 82.4088 37.9592 82.4088L53.0467 82.4088C54.4432 82.4088 55.5822 81.2698 55.5822 79.8733L55.5765 79.8675Z" fill="#42F4B1"/>
<path d="M109.062 81.7048V73.0663C109.062 72.5119 109.514 72.0598 110.069 72.0598L118.707 72.0598C119.262 72.0598 119.714 71.6076 119.714 71.0532L119.712 65.0663C119.712 64.5119 119.259 64.0597 118.705 64.0597L110.067 64.0597C109.512 64.0597 109.06 63.6076 109.06 63.0532L109.06 54.4147C109.06 53.8603 108.608 53.4081 108.054 53.4081L102.069 53.4081C101.514 53.4081 101.062 53.8603 101.062 54.4147L101.062 63.0532C101.062 63.6076 100.61 64.0597 100.056 64.0597L91.4172 64.0597C90.8628 64.0597 90.4107 64.5119 90.4107 65.0663L90.4107 71.0555C90.4107 71.6099 90.8628 72.062 91.4172 72.062L100.056 72.062C100.61 72.062 101.062 72.5142 101.062 73.0686L101.062 81.7071C101.062 82.2615 101.514 82.7136 102.069 82.7136L108.058 82.7136C108.612 82.7136 109.065 82.2615 109.065 81.7071L109.062 81.7048Z" fill="#42F4B1"/>
</svg>
