<svg width="38" height="43" viewBox="0 0 38 43" fill="none" xmlns="http://www.w3.org/2000/svg">
<path d="M2.23147 10.9625L2.23156 10.9625L18.2681 1.69615C18.2682 1.69613 18.2682 1.69612 18.2682 1.6961C18.7208 1.43463 19.2792 1.43463 19.7318 1.6961C19.7318 1.69612 19.7318 1.69613 19.7319 1.69615L35.7684 10.9625L35.7685 10.9625C36.22 11.2234 36.5 11.7079 36.5 12.2336L36.5 30.7664C36.5 31.2921 36.22 31.7766 35.7685 32.0375L35.7684 32.0375L19.7319 41.3039C19.2792 41.5654 18.7208 41.5654 18.2681 41.3039L2.23156 32.0375L2.23147 32.0375C1.78005 31.7766 1.5 31.2921 1.5 30.7664L1.5 12.2336C1.5 11.7079 1.78004 11.2234 2.23147 10.9625Z" fill="#1B153E" stroke="white" stroke-width="3"/>
<circle cx="14.9628" cy="15.4892" r="4.48921" stroke="white" stroke-width="1.50516"/>
<path d="M8 28.8653V26.8831C8 23.0698 11.1174 19.9785 14.9629 19.9785C18.8083 19.9785 21.9257 23.0698 21.9257 26.8831V28.8653" stroke="white" stroke-width="1.50516"/>
<path d="M25.8315 22.6776L29.1366 18.0931L24.872 18.0931L28.0896 13.6712" stroke="white" stroke-width="1.6272" stroke-linecap="round"/>
</svg>
